<svg aria-hidden="true" style="position: absolute; width: 0; height: 0; overflow: hidden;" version="1.1" xmlns="http://www.w3.org/2000/svg" xmlns:xlink="http://www.w3.org/1999/xlink">
<defs>
<symbol id="arrow-left" viewBox="0 0 32 32">
<path fill="none" stroke="#ff751d" style="stroke: var(--color1, #ff751d)" stroke-linejoin="miter" stroke-linecap="butt" stroke-miterlimit="4" stroke-width="5.3333" d="M22.667 2.667l-10.667 13.333 10.667 13.333"></path>
</symbol>
<symbol id="arrow-right" viewBox="0 0 32 32">
<path fill="none" stroke="#ff751d" style="stroke: var(--color1, #ff751d)" stroke-linejoin="miter" stroke-linecap="butt" stroke-miterlimit="4" stroke-width="5.3333" d="M9.333 2.667l10.667 13.333-10.667 13.333"></path>
</symbol>
<symbol id="arrow" viewBox="0 0 32 32">
<path fill="#ff751d" style="fill: var(--color1, #ff751d)" d="M32 14.222h-25.191l6.364-6.382-2.507-2.507-10.667 10.667 10.667 10.667 2.507-2.507-6.364-6.382h25.191v-3.556z"></path>
</symbol>
<symbol id="logout" viewBox="0 0 32 32">
<path d="M20 28h-16v-24h16v2h4v-6h-24v32h24v-6h-4v2z"></path>
<path d="M24.586 8.586l-2.828 2.828 2.586 2.586h-10.344v4h10.344l-2.586 2.586 2.828 2.828 7.414-7.414-7.414-7.414z"></path>
</symbol>
<symbol id="main-salary" viewBox="0 0 32 32">
<path d="M15.413 12.95c-0.109-0.039-0.22-0.079-0.331-0.12v-2.017c0.243 0.098 0.453 0.218 0.643 0.363l-0.007-0.005c0.105 0.083 0.24 0.133 0.386 0.133 0.345 0 0.625-0.28 0.625-0.625 0-0.189-0.084-0.358-0.216-0.473l-0.001-0.001c-0.404-0.316-0.882-0.558-1.404-0.695l-0.027-0.006v-0.306c-0.011-0.337-0.286-0.606-0.625-0.606s-0.614 0.269-0.625 0.605l-0 0.001v0.277c-0.085 0.018-0.152 0.035-0.218 0.055l0.018-0.005c-0.718 0.217-1.237 0.822-1.387 1.62-0.146 0.775 0.107 1.549 0.644 1.97 0.245 0.193 0.543 0.369 0.943 0.552v2.643c-0.282-0.040-0.495-0.136-0.833-0.357-0.1-0.071-0.225-0.114-0.36-0.114-0.345 0-0.625 0.28-0.625 0.625 0 0.225 0.119 0.423 0.298 0.533l0.003 0.002c0.594 0.389 1.012 0.525 1.518 0.569v0.389c0.011 0.337 0.286 0.606 0.625 0.606s0.614-0.269 0.625-0.605l0-0.001v-0.449c1.040-0.263 1.706-1.151 1.853-2.027 0.189-1.126-0.422-2.143-1.522-2.532zM13.832 12.254c-0.062-0.040-0.12-0.080-0.173-0.121-0.169-0.132-0.245-0.442-0.186-0.754 0.019-0.105 0.099-0.415 0.359-0.581v1.456zM15.702 15.275c-0.068 0.385-0.297 0.706-0.615 0.894l-0.006 0.003v-2.011c0.678 0.286 0.662 0.869 0.621 1.114z"></path>
<path d="M29.594 13.354l-3.969-2.622v-10.107c0-0.345-0.28-0.625-0.625-0.625h-15c-0.345 0-0.625 0.28-0.625 0.625v2.375h-2.375c-0.345 0-0.625 0.28-0.625 0.625v7.106l-3.969 2.623c-0.17 0.113-0.28 0.304-0.281 0.521v17.5c0 0.345 0.28 0.625 0.625 0.625h10.437c0.345 0 0.625-0.28 0.625-0.625s-0.28-0.625-0.625-0.625h-8.929l9.113-9.112 2.285 1.509c0.097 0.065 0.216 0.104 0.345 0.104s0.248-0.039 0.347-0.105l-0.002 0.001 2.285-1.509 9.112 9.113h-8.929c-0.337 0.011-0.606 0.286-0.606 0.625s0.269 0.614 0.605 0.625l0.001 0h10.438c0.345 0 0.625-0.28 0.625-0.625v-17.501c0-0.21-0.105-0.406-0.28-0.521zM28.116 13.875l-2.491 1.645v-3.29l2.491 1.645zM10.625 1.25h13.75v15.095l-1.75 1.156v-13.876c0-0.345-0.28-0.625-0.625-0.625h-11.375v-1.75zM6.375 12.23v3.29l-2.491-1.646 2.491-1.645zM3.375 29.866v-14.83l8.931 5.898-8.931 8.931zM16 21.876l-8.375-5.531v-12.095h13.75v14.075l-5.375 3.55zM28.625 15.037v14.83l-8.931-8.931 8.931-5.898z"></path>
<path d="M16 30.75c-0.165 0-0.326 0.066-0.442 0.183s-0.183 0.278-0.183 0.442c0 0.165 0.066 0.326 0.183 0.442s0.277 0.183 0.442 0.183 0.326-0.067 0.442-0.183c0.117-0.117 0.183-0.278 0.183-0.442s-0.066-0.326-0.183-0.442c-0.113-0.113-0.269-0.182-0.442-0.183h-0z"></path>
</symbol>
<symbol id="add-salary" viewBox="0 0 32 32">
<path d="M11.67 19.346c0-0.259-0.21-0.469-0.469-0.469v0h-4.546c-0.259 0-0.469 0.21-0.469 0.469v3.031c0 0.259 0.21 0.469 0.469 0.469h4.546c0.259 0 0.469-0.21 0.469-0.469v-3.030zM10.733 21.907h-3.609v-2.093h3.609v2.093zM22.819 21.835h2.525c0.259 0 0.469-0.21 0.469-0.469s-0.21-0.469-0.469-0.469v0h-2.526c-0.259 0-0.469 0.21-0.469 0.469s0.21 0.469 0.469 0.469v0zM22.819 19.815h2.525c0.259 0 0.469-0.21 0.469-0.469s-0.21-0.469-0.469-0.469v0h-2.526c-0.259 0-0.469 0.21-0.469 0.469s0.21 0.469 0.469 0.469v0z"></path>
<path d="M27.365 24.402c-0.259 0-0.469 0.21-0.469 0.469v0 6.029c0 0.090-0.073 0.163-0.163 0.163v0h-21.466c-0.090-0-0.162-0.073-0.162-0.163 0 0 0 0 0 0v0-10.373c0-0.259-0.21-0.469-0.469-0.469s-0.469 0.21-0.469 0.469v0 10.373c0 0.607 0.494 1.101 1.1 1.101h21.466c0.607-0.001 1.1-0.493 1.1-1.101v-6.029c0-0.259-0.21-0.469-0.469-0.469v0zM26.733 15.91h-7.739v-2.378c2.421-1.131 4.103-3.59 4.103-6.434 0-3.915-3.183-7.098-7.098-7.098-1.358 0-2.679 0.385-3.818 1.114-1.104 0.713-1.981 1.692-2.553 2.848l-0.019 0.042c-0.030 0.060-0.047 0.13-0.047 0.205 0 0.259 0.21 0.469 0.469 0.469 0.184 0 0.344-0.107 0.421-0.261l0.001-0.003c1.040-2.143 3.166-3.475 5.546-3.475 3.397 0 6.16 2.763 6.16 6.16s-2.763 6.161-6.16 6.161-6.16-2.763-6.16-6.16c0-0.24 0.014-0.481 0.041-0.717 0.002-0.016 0.003-0.035 0.003-0.054 0-0.259-0.21-0.469-0.469-0.469-0.24 0-0.438 0.18-0.466 0.413l-0 0.002c-0.030 0.246-0.047 0.531-0.047 0.82 0 0.002 0 0.004 0 0.005v-0c0 2.844 1.682 5.303 4.103 6.434v2.377h-7.739c-0.607 0.001-1.1 0.493-1.1 1.101v1.318c0 0.259 0.21 0.469 0.469 0.469s0.469-0.21 0.469-0.469v-1.318c0-0.090 0.073-0.163 0.163-0.163h6.101l4.279 4.891c0.086 0.098 0.212 0.16 0.353 0.16s0.266-0.062 0.352-0.159l4.28-4.892h6.101c0.090 0 0.162 0.073 0.162 0.163v5.661c0 0.259 0.21 0.469 0.469 0.469s0.469-0.21 0.469-0.469v0-5.661c-0.001-0.607-0.492-1.099-1.099-1.1h-0zM16 20.718l-3.386-3.87h0.861c0.259 0 0.469-0.21 0.469-0.469v0-2.487c0.614 0.193 1.32 0.304 2.052 0.304 0.002 0 0.004 0 0.006 0h-0c0.715 0 1.406-0.107 2.057-0.304v2.487c0 0.259 0.21 0.469 0.469 0.469h0.861l-3.386 3.871z"></path>
<path d="M6.656 27.454h1.263c0.259 0 0.469-0.21 0.469-0.469s-0.21-0.469-0.469-0.469v0h-1.263c-0.259 0-0.469 0.21-0.469 0.469s0.21 0.469 0.469 0.469v0zM11.202 26.517h-1.263c-0.259 0-0.469 0.21-0.469 0.469s0.21 0.469 0.469 0.469v0h1.263c0.259 0 0.469-0.21 0.469-0.469s-0.21-0.469-0.469-0.469v0zM14.485 27.454c0.259 0 0.469-0.21 0.469-0.469s-0.21-0.469-0.469-0.469v0h-1.263c-0.259 0-0.469 0.21-0.469 0.469s0.21 0.469 0.469 0.469v0h1.263zM17.767 27.454c0.259 0 0.469-0.21 0.469-0.469s-0.21-0.469-0.469-0.469v0h-1.263c-0.259 0-0.469 0.21-0.469 0.469s0.21 0.469 0.469 0.469v0h1.263zM6.656 29.98h5.051c0.259 0 0.469-0.21 0.469-0.469s-0.21-0.469-0.469-0.469v0h-5.051c-0.259 0-0.469 0.21-0.469 0.469s0.21 0.469 0.469 0.469v0zM19.825 28.248c0 0.955 0.777 1.731 1.731 1.731 0.497 0 0.946-0.211 1.263-0.549 0.316 0.337 0.765 0.549 1.263 0.549 0.954 0 1.731-0.777 1.731-1.731s-0.777-1.731-1.731-1.731c-0.498 0-0.947 0.211-1.263 0.549-0.316-0.338-0.765-0.549-1.262-0.549-0 0-0 0-0 0h0c-0.954 0-1.731 0.777-1.731 1.731zM24.082 27.454c0.429 0.012 0.773 0.363 0.773 0.794s-0.344 0.782-0.772 0.794l-0.001 0c-0.438 0-0.794-0.355-0.794-0.794v-0c0-0.438 0.356-0.794 0.794-0.794zM22.35 28.248c-0.012 0.429-0.363 0.773-0.794 0.773s-0.782-0.344-0.794-0.772l-0-0.001c0-0.438 0.356-0.794 0.794-0.794s0.794 0.357 0.794 0.794zM14.447 9.551c-0.071-0.045-0.157-0.072-0.25-0.072-0.259 0-0.469 0.21-0.469 0.469 0 0.16 0.081 0.302 0.204 0.386l0.002 0.001c0.606 0.397 1.020 0.514 1.555 0.544v0.517c0 0.259 0.21 0.469 0.469 0.469s0.469-0.21 0.469-0.469v-0.554c1.063-0.206 1.683-1.082 1.821-1.899 0.177-1.050-0.373-1.962-1.399-2.326-0.139-0.049-0.28-0.1-0.422-0.154v-2.248c0.358 0.084 0.571 0.265 0.589 0.281 0.083 0.075 0.193 0.121 0.315 0.121 0.259 0 0.469-0.21 0.469-0.469 0-0.136-0.058-0.258-0.15-0.344l-0-0c-0.027-0.025-0.48-0.433-1.222-0.543v-0.462c0-0.259-0.21-0.469-0.469-0.469s-0.469 0.21-0.469 0.469v0 0.497c-0.094 0.020-0.167 0.040-0.239 0.062l0.021-0.005c-0.675 0.203-1.181 0.782-1.317 1.509-0.126 0.663 0.087 1.302 0.554 1.669 0.248 0.194 0.558 0.373 0.981 0.561v2.848c-0.369-0.026-0.623-0.116-1.042-0.389zM15.086 5.794c-0.19-0.149-0.271-0.44-0.211-0.757 0.054-0.286 0.243-0.63 0.614-0.767v1.781c-0.154-0.082-0.286-0.167-0.41-0.262l0.007 0.005zM16.535 7.502c0.878 0.31 0.825 1.063 0.787 1.286-0.073 0.437-0.378 0.9-0.896 1.082v-2.406l0.109 0.039z"></path>
</symbol>
<symbol id="products" viewBox="0 0 32 32">
<path d="M9.846 6.756h9.354c5.438 0 9.846 4.408 9.846 9.846v2.954c0 5.438-4.408 9.846-9.846 9.846h-9.354c-5.438 0-9.846-4.408-9.846-9.846v-2.954c0-5.438 4.408-9.846 9.846-9.846z"></path>
<path d="M12.977 12.402c-0.255-0.277-0.616-0.452-1.019-0.459l-0.001-0c-0.006-0-0.012-0-0.019-0-0.773 0-1.402 0.619-1.418 1.388l-0 0.002c-0 0.006-0 0.013-0 0.021 0 0.251 0.203 0.454 0.454 0.454s0.454-0.203 0.454-0.454c0-0.002 0-0.004-0-0.005v0c0.004-0.276 0.228-0.497 0.505-0.497 0.148 0 0.281 0.063 0.373 0.165l0 0c0.083 0.091 0.203 0.148 0.335 0.148 0.251 0 0.454-0.203 0.454-0.454 0-0.118-0.045-0.226-0.119-0.307l0 0zM15.394 13.883c-0.143-0.328-0.407-0.581-0.735-0.706l-0.009-0.003c-0.133-0.051-0.288-0.080-0.449-0.080-0.555 0-1.029 0.348-1.216 0.837l-0.003 0.009c-0.015 0.044-0.024 0.094-0.024 0.146 0 0.251 0.203 0.454 0.454 0.454 0.19 0 0.352-0.116 0.42-0.281l0.001-0.003c0.057-0.15 0.199-0.254 0.366-0.254 0.048 0 0.095 0.009 0.138 0.025l-0.003-0.001c0.101 0.038 0.18 0.113 0.221 0.209l0.001 0.002c0.071 0.164 0.231 0.277 0.418 0.277 0.251 0 0.454-0.203 0.454-0.454 0-0.064-0.013-0.125-0.037-0.181l0.001 0.003zM18.322 9.859c-0.082-0.082-0.196-0.133-0.321-0.133s-0.239 0.051-0.322 0.133l-0.428 0.429c-0.082 0.082-0.133 0.196-0.133 0.321 0 0.251 0.203 0.454 0.454 0.454 0.126 0 0.239-0.051 0.322-0.133l0.428-0.429c0.082-0.082 0.133-0.196 0.133-0.321s-0.051-0.239-0.133-0.321v0zM15.495 15.724h-0.606c-0.251 0-0.454 0.203-0.454 0.454s0.203 0.454 0.454 0.454v0h0.606c0.251 0 0.454-0.203 0.454-0.454s-0.203-0.454-0.454-0.454v0zM20.138 15.724h-0.606c-0.251 0-0.454 0.203-0.454 0.454s0.203 0.454 0.454 0.454v0h0.606c0.251 0 0.454-0.203 0.454-0.454s-0.203-0.454-0.454-0.454v0z"></path>
<path d="M31.985 23.916l-0.118-0.639c-0.077-0.403-0.427-0.704-0.847-0.704-0.055 0-0.11 0.005-0.162 0.015l0.005-0.001-2.408 0.443 1.090-0.73c0.232-0.157 0.382-0.418 0.382-0.715 0-0.155-0.041-0.301-0.113-0.426l0.002 0.004-0.33-0.584c-0.114-0.199-0.301-0.347-0.523-0.408l-0.006-0.001c-0.066-0.018-0.142-0.029-0.221-0.029-0.040 0-0.079 0.003-0.118 0.008l0.005-0c0.122-0.67 0.184-1.355 0.184-2.052 0-0.309-0.186-0.575-0.451-0.693 0.173-0.399 0.273-0.864 0.273-1.352 0-0.463-0.090-0.904-0.254-1.308l0.008 0.023c-0.057-0.142-0.167-0.252-0.305-0.308l-0.004-0.001c-0.38-0.156-0.821-0.247-1.283-0.247-0.060 0-0.119 0.002-0.178 0.005l0.008-0c-0.066-1.271-1.112-2.278-2.393-2.28h-0c-0 0-0 0-0 0-0.174 0-0.344 0.019-0.508 0.054l0.016-0.003c0.033-0.186 0.052-0.401 0.052-0.62 0-0.497-0.097-0.971-0.272-1.404l0.009 0.025c-0.058-0.145-0.17-0.258-0.31-0.316l-0.004-0.001c-0.409-0.168-0.884-0.266-1.382-0.266-0.001 0-0.001 0-0.002 0h0c-0.002 0-0.004 0-0.007 0-0.737 0-1.423 0.215-2 0.585l0.015-0.009c-0.235-0.67-0.601-1.243-1.069-1.712l0 0c-0.139-0.14-0.331-0.226-0.544-0.226-0.001 0-0.002 0-0.002 0h0c-0.206 0-0.4 0.080-0.546 0.226l-2.199 2.205c-0.402-0.36-0.936-0.581-1.521-0.581-0.141 0-0.279 0.013-0.413 0.037l0.014-0.002c-0.491 0.088-0.918 0.322-1.244 0.653l-0 0c-0.293-0.144-0.637-0.228-1.001-0.228-0.138 0-0.273 0.012-0.405 0.035l0.014-0.002c-0.103 0.018-0.204 0.043-0.302 0.074v-1.698c-0.001-1.17-0.937-2.12-2.101-2.143l-0.002-0v-0.963c0.359-0.064 0.627-0.373 0.628-0.745v-2.183c-0.001-0.418-0.339-0.757-0.758-0.757h-3.694c-0.418 0.001-0.757 0.339-0.757 0.757v2.183c0.001 0.372 0.269 0.681 0.623 0.745l0.005 0.001v0.963c-1.166 0.023-2.103 0.974-2.103 2.144v13.26c-0.907 0.819-1.472 1.962-1.472 3.226 0 2.486 2.182 4.51 4.865 4.51l18.184-0.005c0.001 0 0.002 0 0.003 0 0.641 0 1.214-0.29 1.596-0.745l0.003-0.003c0.387-0.463 0.551-1.063 0.456-1.656l3.632 0.652c0.046 0.009 0.1 0.014 0.154 0.014 0.188 0 0.362-0.060 0.503-0.163l-0.003 0.002c0.189-0.134 0.317-0.344 0.351-0.573l0.098-0.66c0.006-0.038 0.009-0.082 0.009-0.126 0-0.407-0.283-0.749-0.663-0.838l-0.006-0.001-1.28-0.294 2.406-0.442c0.232-0.043 0.427-0.174 0.553-0.356l0.002-0.003c0.13-0.189 0.179-0.418 0.137-0.644zM26.791 15.12c0.274 0 0.543 0.043 0.801 0.129 0.081 0.239 0.128 0.515 0.128 0.802 0 0.474-0.128 0.918-0.352 1.3l0.007-0.012h-1.224l0.39-0.391c0.078-0.081 0.126-0.192 0.126-0.314 0-0.251-0.203-0.454-0.454-0.454-0.122 0-0.233 0.048-0.315 0.126l0-0-0.207 0.207c-0.101-0.327-0.269-0.608-0.489-0.84l0.001 0.001c0.43-0.345 0.982-0.553 1.582-0.553 0.002 0 0.004 0 0.006 0h-0zM24.229 12.844c0.822 0.002 1.488 0.669 1.488 1.492 0 0 0 0 0 0.001v-0c0 0.015-0.001 0.031-0.001 0.045-0.505 0.168-0.938 0.431-1.298 0.771l0.002-0.002c-0.045-0.019-0.106-0.039-0.168-0.057l-0.015-0.004c-0.134-0.709-0.607-1.284-1.242-1.557l-0.014-0.005c0.268-0.413 0.727-0.683 1.248-0.684h0zM21.828 10.313c0.309 0 0.612 0.050 0.904 0.149 0.094 0.271 0.149 0.583 0.149 0.908 0 0.432-0.096 0.841-0.268 1.208l0.007-0.017c-0.243 0.222-0.439 0.49-0.576 0.792l-0.006 0.015c-0.462 0.028-0.879 0.2-1.212 0.471l0.004-0.003c-0.1-0.181-0.214-0.337-0.345-0.478l0.001 0.002 1.042-1.044c0.082-0.082 0.133-0.196 0.133-0.321 0-0.251-0.203-0.454-0.454-0.454-0.126 0-0.239 0.051-0.322 0.133l-1.139 1.141c-0.202-0.098-0.437-0.171-0.685-0.205l-0.012-0.001c0.115-0.576 0.39-1.074 0.776-1.461l-0 0c0.51-0.514 1.216-0.832 1.996-0.832 0.002 0 0.005 0 0.007 0h-0zM18.346 17.339h-0.394c-0.068-0.17-0.232-0.288-0.423-0.288s-0.355 0.118-0.422 0.285l-0.001 0.003h-0.463c0.042-0.068 0.067-0.15 0.067-0.238 0-0.251-0.203-0.454-0.454-0.454-0.126 0-0.24 0.051-0.322 0.134v0l-0.428 0.429c-0.036 0.036-0.066 0.079-0.088 0.126l-0.001 0.003h-0.925c-0.343-0.518-0.557-1.148-0.583-1.827l-0-0.007h7.207c-0.026 0.685-0.24 1.315-0.591 1.847l0.008-0.013h-0.962c-0.023-0.050-0.054-0.093-0.090-0.129l-0.428-0.429c-0.082-0.081-0.195-0.132-0.32-0.132-0.251 0-0.454 0.203-0.454 0.454 0 0.087 0.024 0.168 0.067 0.237l-0.001-0.002zM17.29 14.596c0.177-0.639 0.752-1.102 1.436-1.103h0c0.684 0.002 1.259 0.464 1.434 1.092l0.002 0.011h-2.873zM18.219 9.009c0.406 0.437 0.705 0.979 0.853 1.58l0.005 0.025c-0.221 0.24-0.413 0.511-0.567 0.806l-0.010 0.021c-0.067-0.042-0.149-0.067-0.237-0.067h-0.606c-0.251 0-0.454 0.203-0.454 0.454s0.203 0.454 0.454 0.454v0h0.531c-0.026 0.101-0.050 0.23-0.068 0.361l-0.002 0.019c-0.196 0.052-0.367 0.12-0.527 0.207l0.013-0.006c-0.306-0.521-0.797-0.906-1.382-1.065l-0.016-0.004-0.001-0.003c-0.038-0.218-0.102-0.414-0.188-0.596l0.006 0.014 2.195-2.201zM10.006 13.109c-0.049-0.137-0.078-0.294-0.078-0.459 0-0.766 0.621-1.387 1.387-1.387 0.311 0 0.599 0.103 0.83 0.276l-0.004-0.003c0.075 0.056 0.169 0.090 0.272 0.090 0.158 0 0.296-0.080 0.378-0.202l0.001-0.002c0.208-0.313 0.532-0.533 0.91-0.599l0.008-0.001c0.073-0.014 0.157-0.021 0.242-0.021 0.761 0 1.378 0.617 1.378 1.378 0 0.001 0 0.002 0 0.003v-0c0.001 0.235 0.181 0.431 0.415 0.451 0.508 0.045 0.94 0.364 1.141 0.815-0.265 0.315-0.451 0.705-0.523 1.133l-0.002 0.014h-2.591c-0.322 0-0.598 0.199-0.714 0.48-0.543-0.374-1.214-0.598-1.938-0.598-0.003 0-0.005 0-0.008 0h0c-0.441 0-0.873 0.083-1.285 0.247-0.141 0.057-0.251 0.167-0.306 0.305l-0.001 0.004c-0.096 0.234-0.17 0.506-0.21 0.789l-0.002 0.018c-0.162-0.184-0.276-0.413-0.321-0.666l-0.001-0.008c-0.013-0.071-0.020-0.152-0.020-0.235 0-0.555 0.326-1.033 0.796-1.255l0.008-0.004c0.157-0.074 0.264-0.231 0.264-0.413 0-0.055-0.010-0.108-0.028-0.156l0.001 0.003zM11.36 17.214l0.125 0.124h-1.092c-0.133-0.301-0.211-0.652-0.211-1.021 0-0.286 0.047-0.562 0.133-0.819l-0.005 0.018c0.239-0.082 0.514-0.129 0.8-0.129 0 0 0.001 0 0.001 0h-0c0.002 0 0.004 0 0.006 0 0.802 0 1.517 0.371 1.984 0.951l0.004 0.005c0.077 0.349 0.195 0.681 0.348 0.995h-0.685l-0.764-0.766c-0.082-0.082-0.196-0.133-0.322-0.133-0.251 0-0.454 0.203-0.454 0.454 0 0.125 0.051 0.239 0.133 0.321v0zM9.425 17.338h-1.62c0.075-0.442 0.336-0.812 0.698-1.033l0.007-0.004c0.217 0.289 0.495 0.522 0.815 0.681l0.013 0.006c0.023 0.118 0.051 0.235 0.087 0.35zM4.841 2.878h3.392v1.88h-3.392v-1.881zM7.605 5.667v0.95h-2.136v-0.95h2.136zM3.366 10.605h2.95c0.251 0 0.454-0.203 0.454-0.454s-0.203-0.454-0.454-0.454v0h-2.951v-0.934c0 0 0 0 0 0 0-0.681 0.551-1.234 1.232-1.236h3.879c0.681 0.002 1.232 0.554 1.232 1.236 0 0 0 0 0 0v0 0.934h-0.848c-0.004-0-0.010-0-0.015-0-0.251 0-0.454 0.203-0.454 0.454s0.203 0.454 0.454 0.454c0.005 0 0.011-0 0.016-0l-0.001 0h0.848v0.404c-0.426 0.416-0.691 0.997-0.691 1.639 0 0.138 0.012 0.272 0.035 0.403l-0.002-0.014 0.001 0.005c-0.605 0.419-0.996 1.11-0.996 1.892 0 0.193 0.024 0.38 0.069 0.559l-0.003-0.016c-0.233 0.131-0.433 0.289-0.604 0.474l-0.001 0.002h-4.15v-5.348zM3.366 16.861h3.623c-0.046 0.138-0.081 0.3-0.099 0.467l-0.001 0.010h-0.076c-0.418 0-0.758 0.34-0.758 0.759 0 0.721 0.067 1.43 0.197 2.122-0.119-0.010-0.257-0.016-0.397-0.016-0.001 0-0.003 0-0.004 0h0c-0.549 0-1.073 0.087-1.474 0.245-0.613 0.242-0.783 0.586-0.82 0.824-0.065 0.032-0.128 0.066-0.192 0.101v-4.513zM9.118 22.442c0.163 0.131 0.264 0.242 0.321 0.322h-0.017c-0.257 0-0.719-0.103-1.245-0.394-0.198-0.109-0.369-0.226-0.527-0.358l0.005 0.004c-0.079-0.067-0.181-0.108-0.294-0.108s-0.215 0.041-0.294 0.108l0.001-0.001c-0.145 0.123-0.325 0.246-0.521 0.354-0.525 0.29-0.988 0.394-1.245 0.394h-0.017c0.058-0.080 0.158-0.192 0.321-0.322 0.104-0.084 0.17-0.212 0.17-0.355 0-0.232-0.174-0.424-0.399-0.451l-0.002-0c-0.443-0.052-0.724-0.165-0.855-0.247 0.164-0.102 0.58-0.277 1.328-0.277 0.62 0 1.073 0.13 1.29 0.253 0.138 0.077 0.307 0.077 0.445 0 0.217-0.122 0.67-0.253 1.29-0.253 0.748 0 1.164 0.175 1.328 0.277-0.131 0.082-0.412 0.195-0.855 0.247-0.227 0.027-0.402 0.219-0.402 0.451 0 0.143 0.066 0.271 0.169 0.354l0.001 0.001zM8.209 27.972l0.016 0.084c0.054 0.292 0.168 0.56 0.327 0.793h-2.703c-2.181 0-3.956-1.615-3.956-3.601 0-1.357 0.829-2.54 2.050-3.154 0.14 0.105 0.315 0.195 0.522 0.268-0.080 0.128-0.134 0.281-0.152 0.444l-0 0.005c-0.018 0.209 0.046 0.409 0.18 0.56 0.178 0.2 0.45 0.302 0.811 0.302 0.48 0 1.11-0.19 1.685-0.509 0.132-0.073 0.257-0.15 0.374-0.231 0.118 0.081 0.243 0.159 0.375 0.231 0.575 0.319 1.205 0.509 1.685 0.509 0.36 0 0.633-0.102 0.81-0.302 0.134-0.152 0.199-0.351 0.181-0.56-0.018-0.168-0.073-0.321-0.155-0.454l0.003 0.005c0.199-0.068 0.372-0.159 0.527-0.272l-0.006 0.004c0.969 0.486 1.69 1.332 1.948 2.337l-3.213 1.221c-0.791 0.305-1.342 1.060-1.342 1.943 0 0.133 0.012 0.263 0.036 0.389l-0.002-0.013zM24.937 28.421c-0.217 0.259-0.541 0.422-0.902 0.422-0.001 0-0.002 0-0.002 0h-0.477l-0.297-1.608c-0.038-0.216-0.224-0.378-0.448-0.378-0.251 0-0.454 0.203-0.454 0.454 0 0.031 0.003 0.062 0.009 0.092l-0-0.003 0.267 1.443-1.563 0.001-0.202-1.088c-0.047-0.205-0.228-0.356-0.444-0.356-0.251 0-0.454 0.203-0.454 0.454 0 0.024 0.002 0.047 0.005 0.070l-0-0.003 0.171 0.923-3.636 0.001-0.274-1.477c-0.037-0.217-0.223-0.381-0.448-0.381-0.251 0-0.454 0.203-0.454 0.454 0 0.032 0.003 0.064 0.010 0.094l-0.001-0.003 0.243 1.313-5.31 0.002c-0.001 0-0.002 0-0.002 0-0.572 0-1.049-0.409-1.153-0.951l-0.001-0.007-0.016-0.084c-0.012-0.063-0.019-0.136-0.019-0.211 0-0.497 0.311-0.922 0.749-1.091l0.008-0.003 1.786-0.678 0.133 0.718c0.038 0.216 0.224 0.378 0.448 0.378 0.251 0 0.454-0.203 0.454-0.454 0-0.031-0.003-0.062-0.009-0.092l0.001 0.003-0.163-0.88 2.651-1.007c0.173-0.067 0.293-0.232 0.293-0.425 0-0.251-0.203-0.454-0.454-0.454-0.058 0-0.113 0.011-0.164 0.031l0.003-0.001-1.233 0.469c-0.346-1.225-1.235-2.248-2.414-2.835-0.037-0.238-0.207-0.582-0.82-0.824-0.401-0.159-0.925-0.246-1.474-0.246-0.378 0-0.739 0.042-1.058 0.118v-0.275c-0.001-0.25-0.204-0.453-0.454-0.453-0.106 0-0.204 0.036-0.281 0.097l0.001-0.001c-0.068-0.429-0.111-0.928-0.118-1.436l-0-0.008h14.798c0.251 0 0.454-0.203 0.454-0.454s-0.203-0.454-0.454-0.454v0h-0.186c0.289-0.596 0.453-1.264 0.453-1.97-0-0.4-0.305-0.729-0.694-0.768l-0.003-0c0.214-0.203 0.504-0.328 0.824-0.328 0.002 0 0.003 0 0.005 0h-0c0.001 0 0.001 0 0.002 0 0.663 0 1.201 0.538 1.201 1.201 0 0.001 0 0.002 0 0.003v-0c0 0.235 0.18 0.431 0.415 0.452 0.546 0.050 0.984 0.458 1.079 0.986l0.001 0.007c0.025 0.143 0.022 0.284-0.003 0.418h-0.487c-0.251 0-0.454 0.203-0.454 0.454s0.203 0.454 0.454 0.454h3.531c-0.011 0.87-0.127 1.709-0.335 2.51l0.016-0.073-2.462 1.454c-0.26-0.877-1.058-1.505-2.003-1.505-0.267 0-0.522 0.050-0.757 0.142l0.014-0.005-5.071 1.926c-0.173 0.067-0.293 0.232-0.293 0.425 0 0.251 0.203 0.454 0.454 0.454 0.058 0 0.113-0.011 0.164-0.031l-0.003 0.001 0.668-0.254 0.208 1.12c0.034 0.221 0.222 0.387 0.449 0.387 0.251 0 0.454-0.203 0.454-0.454 0-0.035-0.004-0.069-0.011-0.102l0.001 0.003-0.237-1.282 3.54-1.345c0.125-0.049 0.269-0.077 0.42-0.077 0.212 0 0.411 0.056 0.583 0.154l-0.006-0.003c0.305 0.171 0.517 0.465 0.58 0.807l0.919 4.962c0.012 0.064 0.020 0.138 0.020 0.213 0 0.285-0.103 0.546-0.273 0.748l0.001-0.002zM26.558 24.865c-0.213 0.040-0.372 0.225-0.372 0.447 0 0.215 0.149 0.395 0.349 0.442l0.003 0.001 3.383 0.776-0.085 0.567-3.921-0.705-0.613-3.309 3.416-2.017 0.285 0.504-2.881 1.925c-0.122 0.083-0.202 0.221-0.202 0.378 0 0.251 0.203 0.454 0.454 0.454 0.029 0 0.057-0.003 0.085-0.008l-0.003 0 4.525-0.831 0.1 0.544-4.524 0.831z"></path>
</symbol>
<symbol id="cocktail" viewBox="0 0 32 32">
<path d="M7.734 2.7c-0.262 0-0.474 0.212-0.474 0.474v0.201c0.009 0.255 0.218 0.458 0.475 0.458s0.465-0.203 0.475-0.458l0-0.001v-0.201c0-0.262-0.212-0.475-0.474-0.475h-0zM6.354 4.281h-0.201c-0.262 0-0.475 0.213-0.475 0.475s0.213 0.475 0.475 0.475v0h0.201c0.262 0 0.475-0.213 0.475-0.475s-0.213-0.475-0.475-0.475v0zM7.094 3.444l-0.142-0.142c-0.086-0.086-0.205-0.139-0.336-0.139-0.262 0-0.475 0.213-0.475 0.475 0 0.131 0.053 0.25 0.139 0.336l0.142 0.142c0.086 0.086 0.205 0.14 0.336 0.14s0.25-0.053 0.336-0.14l0-0c0.086-0.086 0.139-0.205 0.139-0.336s-0.053-0.25-0.139-0.336v0zM7.094 5.397c-0.086-0.086-0.205-0.139-0.336-0.139s-0.25 0.053-0.336 0.139v0l-0.142 0.142c-0.086 0.086-0.139 0.205-0.139 0.336 0 0.262 0.213 0.475 0.475 0.475 0.131 0 0.25-0.053 0.336-0.139l0.142-0.142c0.086-0.086 0.139-0.205 0.139-0.336s-0.053-0.25-0.139-0.336v0z"></path>
<path d="M28.455 3.916h-16.040c-0.194-1.058-0.714-1.97-1.452-2.651l-0.003-0.003c-0.843-0.782-1.975-1.262-3.22-1.262-0.002 0-0.004 0-0.006 0h0c-2.622 0-4.756 2.134-4.756 4.756s2.134 4.756 4.756 4.756c0.482 0 0.954-0.073 1.411-0.215 0.709 0.67 1.586 1.171 2.561 1.431l0.042 0.009c0.645 0.172 1.133 0.697 1.25 1.35l0.002 0.010 0.604 3.496c0.219 1.26 0.928 2.323 1.919 3.005l0.015 0.010c0.785 0.537 1.253 1.414 1.253 2.345v7.125c-0.359 0.23-0.594 0.627-0.594 1.079 0 0.014 0 0.028 0.001 0.041l-0-0.002c-1.186 0.242-2.163 0.466-2.905 0.663-0.505 0.135-0.887 0.254-1.166 0.365-0.259 0.102-0.743 0.293-0.743 0.735 0 0.594 0.773 0.696 1.394 0.778 0.534 0.070 1.273 0.129 2.198 0.174 1.562 0.077 3.145 0.089 3.16 0.089h0.008c0.016 0 1.598-0.013 3.16-0.089 0.925-0.045 1.665-0.103 2.198-0.174 0.621-0.082 1.394-0.183 1.394-0.778 0-0.47-0.434-0.713-2.018-1.129-0.96-0.251-2.156-0.506-3.015-0.68-0.001-0.343-0.137-0.663-0.374-0.898v-7.301c0-0.93 0.469-1.807 1.253-2.345 1.007-0.692 1.716-1.755 1.931-2.988l0.004-0.027 0.603-3.496c0.119-0.663 0.607-1.188 1.239-1.357l0.012-0.003c2.135-0.57 3.778-2.233 4.307-4.339l0.009-0.041c0.002-0.008 0.005-0.016 0.006-0.024 0.109-0.453 0.168-0.924 0.168-1.406v-0.443c0-0.313-0.253-0.567-0.566-0.567h-0zM7.734 8.562c-2.101-0.003-3.803-1.705-3.806-3.805v-0c0.003-2.101 1.705-3.803 3.805-3.806h0c0.96 0 1.877 0.358 2.581 1.009 0.552 0.51 0.952 1.178 1.126 1.932l0.005 0.026h-0.487c-0.387-1.445-1.684-2.492-3.225-2.494h-0c-1.84 0.002-3.332 1.494-3.334 3.334v0c0.003 1.841 1.496 3.332 3.338 3.332 0.143 0 0.285-0.009 0.423-0.027l-0.017 0.002c0.091 0.149 0.189 0.293 0.292 0.433-0.211 0.042-0.454 0.066-0.703 0.066h-0zM9.189 3.303c-0.086-0.086-0.205-0.139-0.336-0.139s-0.25 0.053-0.336 0.139v0l-0.142 0.142c-0.086 0.086-0.139 0.204-0.139 0.335 0 0.049 0.007 0.096 0.021 0.14l-0.001-0.003h-0.43c-0.313 0.001-0.566 0.254-0.566 0.567 0 0 0 0 0 0v0 0.443c0 0.482 0.058 0.952 0.167 1.406l0.006 0.026c0.066 0.267 0.149 0.529 0.249 0.781-1.293-0.031-2.33-1.086-2.331-2.383v-0c0-1.315 1.069-2.385 2.384-2.385 1.015 0.001 1.881 0.635 2.226 1.528l0.006 0.016h-0.73c0.057-0.077 0.091-0.174 0.091-0.279 0-0.131-0.053-0.249-0.139-0.335v0zM19.606 30.069c1.669 0.336 2.717 0.59 3.373 0.774-1.2 0.118-3.124 0.195-4.838 0.208-1.714-0.013-3.638-0.090-4.838-0.208 0.627-0.176 1.613-0.417 3.158-0.731 0.398-0.087 0.691-0.437 0.691-0.855 0-0.026-0.001-0.052-0.003-0.078l0 0.003c-0.001-0.008-0.001-0.017-0.001-0.025 0-0.15 0.101-0.276 0.239-0.315l0.002-0.001c0.205-0.056 0.353-0.24 0.353-0.458 0-0 0-0 0-0v0-7.43c-0.001-0.648-0.166-1.258-0.456-1.79l0.010 0.020c0.265 0.017 0.555 0.026 0.845 0.026s0.58-0.009 0.845-0.026c-0.28 0.512-0.445 1.122-0.446 1.771v7.526c0 0.162 0.083 0.314 0.221 0.401 0.093 0.058 0.153 0.16 0.153 0.276 0 0.007-0 0.015-0.001 0.022l0-0.001c-0.001 0.014-0.001 0.031-0.001 0.047 0 0.416 0.296 0.764 0.688 0.843l0.006 0.001zM28.072 4.926c0 0.286-0.024 0.566-0.070 0.84h-14.293c-0.262 0-0.475 0.213-0.475 0.475s0.213 0.475 0.475 0.475v0h14.036c-0.588 1.526-1.852 2.675-3.415 3.093l-0.035 0.008c-1.004 0.268-1.764 1.085-1.946 2.102l-0.002 0.016-0.603 3.495c-0.174 1-0.737 1.844-1.524 2.385l-0.012 0.008c-0.127 0.087-0.505 0.291-0.574 0.322-0.376 0.148-2.602 0.148-2.98 0-0.232-0.116-0.421-0.223-0.603-0.339l0.028 0.017c-0.8-0.549-1.363-1.393-1.533-2.371l-0.003-0.022-0.603-3.495c-0.184-1.033-0.944-1.849-1.93-2.113l-0.019-0.004c-0.926-0.246-1.72-0.722-2.344-1.364l-0.001-0.001c-0.47-0.483-0.845-1.061-1.093-1.702l-0.012-0.035h2.962c0.255-0.009 0.458-0.218 0.458-0.475s-0.203-0.465-0.458-0.475l-0.001-0h-3.219c-0.045-0.253-0.070-0.544-0.070-0.841v-0.061h19.863v0.061z"></path>
</symbol>
<symbol id="kite" viewBox="0 0 32 32">
<path d="M30.281 15.724l-1.286-1.286v-12.227l1.080-1.080c0.102-0.099 0.165-0.236 0.165-0.389 0-0.299-0.243-0.542-0.542-0.542-0.153 0-0.291 0.063-0.389 0.165l-0 0-1.081 1.078h-12.229l-1.285-1.285c-0.099-0.105-0.239-0.17-0.395-0.17-0.3 0-0.542 0.243-0.542 0.542 0 0.155 0.065 0.296 0.17 0.395l0 0 1.23 1.23-3.815 16.168c-0.211 0.261-0.339 0.597-0.339 0.963 0 0.743 0.526 1.363 1.226 1.507l0.010 0.002 2.433 0.494c0.469 0.097 0.854 0.392 1.072 0.792l0.004 0.008c0.223 0.415 0.249 0.903 0.072 1.339-0.24 0.583-0.804 0.985-1.461 0.985-0.116 0-0.229-0.013-0.338-0.036l0.010 0.002-9.116-1.931c-0.173-0.038-0.372-0.060-0.576-0.060-1.214 0-2.249 0.772-2.638 1.853l-0.006 0.020c-0.1 0.275-0.157 0.593-0.157 0.924 0 0.513 0.138 0.993 0.379 1.407l-0.007-0.013c0.404 0.694 1.079 1.191 1.877 1.35l0.018 0.003 0.038 0.007c0.73 0.143 1.331 0.599 1.667 1.22l0.006 0.013c0.181 0.33 0.287 0.723 0.287 1.141 0 0.338-0.070 0.659-0.195 0.951l0.006-0.016c-0.024 0.059-0.039 0.128-0.039 0.201 0 0.299 0.243 0.542 0.542 0.542 0.22 0 0.41-0.131 0.495-0.32l0.001-0.003c0.173-0.4 0.274-0.865 0.274-1.354 0-0.605-0.154-1.175-0.426-1.671l0.009 0.018c-0.496-0.918-1.367-1.579-2.401-1.782l-0.022-0.004-0.038-0.007c-0.797-0.157-1.389-0.85-1.389-1.681 0-0.203 0.035-0.398 0.1-0.579l-0.004 0.012c0.242-0.674 0.875-1.147 1.619-1.147 0.125 0 0.246 0.013 0.363 0.039l-0.011-0.002 9.116 1.931c0.166 0.037 0.357 0.058 0.553 0.058 1.109 0 2.060-0.679 2.459-1.645l0.006-0.018c0.124-0.296 0.196-0.64 0.196-1 0-0.461-0.118-0.895-0.324-1.272l0.007 0.014c-0.374-0.688-1.024-1.186-1.798-1.347l-0.017-0.003-2.433-0.494c-0.167-0.033-0.299-0.155-0.346-0.313l-0.001-0.003c-0.013-0.040-0.020-0.087-0.020-0.135 0-0.080 0.021-0.156 0.058-0.221l-0.001 0.002 16.118-3.803 1.231 1.23c0.098 0.098 0.233 0.159 0.383 0.159s0.285-0.061 0.383-0.159v0c0.098-0.098 0.159-0.234 0.159-0.383s-0.061-0.285-0.159-0.383v0zM27.145 2.528l-5.031 5.030-5.030-5.030h10.061zM16.081 3.057l5.267 5.268-8.522 8.522 3.254-13.79zM13.593 17.613l8.521-8.522 5.268 5.267-13.79 3.254zM27.911 13.354l-5.030-5.030 5.030-5.030v10.059z"></path>
</symbol>
<symbol id="health" viewBox="0 0 32 32">
<path d="M31.882 17.829l-0.57-8.305c-0.037-0.554-0.295-1.042-0.686-1.381l-0.003-0.002c-0.349-0.306-0.81-0.493-1.314-0.493-0.053 0-0.106 0.002-0.159 0.006l0.007-0c-1.047 0.081-1.866 0.95-1.866 2.011 0 0.006 0 0.012 0 0.017v-0.001l0.067 6.77-2.933 3.757c-0.348 0.439-0.882 0.719-1.481 0.719-0.166 0-0.328-0.022-0.482-0.062l0.013 0.003 3.191-4.144c0.228-0.297 0.366-0.674 0.366-1.083 0-0.52-0.222-0.988-0.576-1.314l-0.001-0.001c-0.312-0.287-0.731-0.463-1.19-0.463-0.046 0-0.091 0.002-0.136 0.005l0.006-0c-0.502 0.034-0.943 0.274-1.242 0.635l-0.002 0.003-4.821 5.806c-0.756 0.906-1.215 2.082-1.215 3.366 0 0.017 0 0.034 0 0.051l-0-0.003 0.075 7.71c0.003 0.307 0.252 0.555 0.56 0.555l8.028 0.011c0.31-0 0.56-0.251 0.56-0.561 0-0.017-0.001-0.034-0.002-0.051l0 0.002-0.327-3.774 5.329-7.082c0.507-0.668 0.812-1.514 0.812-2.43 0-0.097-0.003-0.193-0.010-0.289l0.001 0.013zM30.183 19.861l-5.458 7.254c-0.070 0.093-0.113 0.21-0.113 0.337 0 0.017 0.001 0.034 0.002 0.050l-0-0.002 0.293 3.378-6.86-0.009-0.069-7.155c-0-0.012-0-0.025-0-0.039 0-1.010 0.361-1.936 0.961-2.655l-0.005 0.007 4.821-5.806c0.115-0.139 0.279-0.223 0.459-0.235 0.181-0.013 0.354 0.047 0.487 0.169 0.251 0.228 0.285 0.617 0.078 0.885l-3.621 4.703c-0.073 0.094-0.117 0.213-0.117 0.342 0 0.194 0.099 0.365 0.249 0.466l0.002 0.001c1.296 0.859 3.061 0.573 4.018-0.653l3.054-3.911c0.074-0.094 0.119-0.214 0.119-0.345 0-0.002 0-0.004-0-0.006v0l-0.069-6.967c-0-0.002-0-0.005-0-0.007 0-0.47 0.363-0.855 0.823-0.89l0.003-0c0.239-0.017 0.469 0.059 0.649 0.215s0.289 0.374 0.305 0.612l0.57 8.305c0.004 0.060 0.007 0.129 0.007 0.199 0 0.662-0.221 1.273-0.592 1.763l0.005-0.007zM9.108 14.503c-0.301-0.364-0.742-0.604-1.239-0.637l-0.005-0c-0.039-0.003-0.084-0.005-0.129-0.005-0.46 0-0.879 0.176-1.192 0.465l0.001-0.001c-0.355 0.328-0.577 0.796-0.577 1.315 0 0.409 0.138 0.786 0.369 1.088l-0.003-0.004 3.191 4.144c-0.141 0.038-0.302 0.059-0.468 0.059-0.599 0-1.133-0.279-1.478-0.715l-0.003-0.004-2.934-3.757 0.067-6.77c0-0.005 0-0.011 0-0.016 0-1.061-0.819-1.93-1.859-2.011l-0.007-0c-0.045-0.004-0.098-0.006-0.151-0.006-0.504 0-0.965 0.187-1.317 0.495l0.002-0.002c-0.393 0.341-0.651 0.829-0.688 1.377l-0 0.006-0.569 8.305c-0.006 0.083-0.009 0.179-0.009 0.277 0 0.916 0.305 1.762 0.819 2.44l-0.007-0.010 5.329 7.082-0.327 3.774c-0.001 0.015-0.002 0.032-0.002 0.049 0 0.309 0.251 0.56 0.56 0.56 0 0 0 0 0 0l8.028-0.011c0.307-0 0.557-0.248 0.56-0.555v-0l0.074-7.71c0-0.015 0-0.032 0-0.049 0-1.283-0.459-2.46-1.221-3.374l0.007 0.008-4.821-5.806zM13.952 30.868l-6.86 0.010 0.293-3.378c0.001-0.015 0.002-0.031 0.002-0.048 0-0.127-0.042-0.245-0.114-0.339l0.001 0.001-5.457-7.254c-0.366-0.483-0.587-1.094-0.587-1.756 0-0.070 0.002-0.14 0.007-0.209l-0.001 0.009 0.569-8.305c0.017-0.245 0.131-0.461 0.303-0.611l0.001-0.001c0.155-0.136 0.359-0.219 0.582-0.219 0.024 0 0.047 0.001 0.070 0.003l-0.003-0c0.468 0.034 0.831 0.429 0.826 0.898l-0.069 6.967c-0 0.002-0 0.004-0 0.006 0 0.131 0.045 0.251 0.12 0.346l-0.001-0.001 3.053 3.911c0.958 1.226 2.722 1.513 4.018 0.653 0.152-0.102 0.251-0.273 0.251-0.467 0-0.129-0.044-0.249-0.117-0.344l0.001 0.001-3.621-4.703c-0.084-0.11-0.135-0.248-0.135-0.399 0-0.192 0.082-0.364 0.212-0.485l0-0c0.134-0.122 0.307-0.182 0.487-0.17s0.343 0.097 0.459 0.235l4.821 5.806c0.595 0.713 0.956 1.639 0.956 2.649 0 0.014-0 0.027-0 0.041l0-0.002-0.069 7.155zM26.986 6.31c0-0.005 0-0.011 0-0.017 0-1.737-0.707-3.309-1.848-4.445l-0-0c-1.136-1.142-2.708-1.848-4.445-1.848-0.006 0-0.012 0-0.018 0h0.001c-1.686 0-3.27 0.657-4.462 1.848l-0.213 0.214-0.213-0.214c-1.136-1.142-2.708-1.848-4.445-1.848-0.006 0-0.012 0-0.019 0h0.001c-1.686 0-3.27 0.657-4.462 1.848-2.461 2.461-2.461 6.464 0 8.924l8.741 8.741c0.101 0.102 0.242 0.165 0.397 0.165s0.295-0.063 0.397-0.165v0l8.741-8.742c1.142-1.136 1.849-2.708 1.849-4.445 0-0.006 0-0.012-0-0.018v0.001zM16 18.323l-8.344-8.345c-2.023-2.023-2.023-5.314 0-7.337 0.934-0.939 2.226-1.52 3.655-1.52 0.005 0 0.010 0 0.014 0h-0.001c0.004 0 0.009-0 0.014-0 1.428 0 2.721 0.581 3.655 1.52l0 0 0.61 0.609c0.101 0.102 0.242 0.165 0.397 0.165s0.295-0.063 0.397-0.165v0l0.61-0.61c0.934-0.939 2.227-1.52 3.655-1.52 0.005 0 0.010 0 0.014 0h-0.001c0.004 0 0.009-0 0.014-0 1.428 0 2.721 0.581 3.655 1.52l0 0c0.939 0.934 1.52 2.227 1.52 3.655 0 0.005 0 0.010-0 0.014v-0.001c0 0.004 0 0.009 0 0.014 0 1.429-0.581 2.721-1.52 3.655l-8.344 8.344z"></path>
</symbol>
<symbol id="car" viewBox="0 0 32 32">
<path d="M30.776 12.821l-0.697-0.739-2.448-6.598c-0.419-1.092-1.457-1.854-2.673-1.86h-17.484c-1.218 0.003-2.257 0.766-2.668 1.84l-0.007 0.020-2.414 6.516-1.005 0.93c-0.847 0.725-1.38 1.794-1.381 2.988v9.613c0.008 1.573 1.284 2.845 2.858 2.845 0 0 0 0 0 0h1.805c1.574-0 2.85-1.272 2.858-2.844v-1.395h16.958v1.394c0.008 1.573 1.284 2.844 2.858 2.845h1.807c1.573-0.001 2.849-1.272 2.857-2.844v-9.867c-0.006-1.118-0.474-2.126-1.223-2.843l-0.001-0.001zM6.086 5.949c0.217-0.564 0.755-0.957 1.384-0.957 0.002 0 0.003 0 0.004 0h17.49c0.615 0 1.169 0.383 1.389 0.957l2.133 5.744h-1.593c-0.343-2.278-2.287-4.004-4.634-4.004-0.245 0-0.485 0.019-0.719 0.055l0.026-0.003c-2.046 0.31-3.642 1.907-3.949 3.927l-0.003 0.026h-13.662l2.134-5.744zM25.497 11.693h-6.502c0.327-1.52 1.66-2.642 3.255-2.642 0.242 0 0.478 0.026 0.705 0.075l-0.022-0.004c1.289 0.282 2.286 1.281 2.56 2.55l0.004 0.022zM6.154 25.531c-0.005 0.817-0.669 1.477-1.487 1.477-0.002 0-0.003 0-0.005 0h-1.804c-0.001 0-0.003 0-0.004 0-0.818 0-1.481-0.66-1.487-1.477v-1.792c0.41 0.267 0.95 0.397 1.491 0.397h3.295v1.395zM30.633 25.531c-0.006 0.817-0.669 1.477-1.487 1.477-0.001 0-0.003 0-0.004 0h-1.804c-0.818-0.001-1.482-0.66-1.49-1.476v-1.395h3.295c0.541 0 1.080-0.13 1.491-0.397v1.791zM29.142 22.769h-26.283c-0.005 0-0.010 0-0.015 0-0.81 0-1.468-0.653-1.475-1.462v-5.389c0-0.752 0.335-1.47 0.91-1.955l0.027-0.027 0.93-0.875h25.894l0.657 0.704c0.006 0.014 0.027 0.021 0.034 0.034 0.496 0.47 0.805 1.132 0.807 1.867v5.641h0.007c-0.009 0.81-0.668 1.463-1.48 1.463-0.004 0-0.008 0-0.012-0h0.001z"></path>
<path d="M9.026 15.795h-5.129c-0.377 0.001-0.682 0.307-0.683 0.684v3.556c0.001 0.377 0.306 0.683 0.683 0.684h5.129c0.377-0.001 0.682-0.307 0.683-0.684v-3.556c-0.001-0.377-0.306-0.683-0.683-0.684h-0zM8.342 19.35h-3.76v-2.188h3.76v2.189zM28.103 15.795h-5.129c-0.377 0.001-0.683 0.307-0.684 0.684v3.556c0.001 0.377 0.307 0.683 0.684 0.684h5.128c0.377-0.001 0.683-0.307 0.684-0.684v-3.556c-0.001-0.377-0.307-0.683-0.684-0.684h-0zM27.419 19.35h-3.761v-2.188h3.76v2.189zM19.303 18.666h-6.606c-0.377 0.001-0.682 0.307-0.683 0.684v0c0.001 0.377 0.307 0.683 0.684 0.684h6.605c0.377-0.001 0.682-0.307 0.683-0.684v-0c-0.001-0.377-0.306-0.683-0.683-0.684h-0zM19.303 16.547h-6.606c-0.377 0.001-0.682 0.307-0.683 0.684v0c0.001 0.377 0.307 0.682 0.684 0.683h6.605c0.377-0.001 0.682-0.306 0.683-0.683v-0c-0.001-0.377-0.306-0.683-0.683-0.684h-0z"></path>
</symbol>
<symbol id="couch" viewBox="0 0 32 32">
<path d="M30.414 11.952h-0.636v-2.363c-0.002-1.398-1.135-2.532-2.533-2.533h-9.181c-0.849 0-1.6 0.419-2.059 1.060l-0.005 0.008c-0.464-0.649-1.216-1.067-2.065-1.067h-5.767c-0.259 0-0.469 0.21-0.469 0.469s0.21 0.469 0.469 0.469v0h5.767c0.881 0.001 1.595 0.715 1.596 1.596v4.688c-0.010-0.010-0.021-0.018-0.030-0.027-0.542-0.503-1.268-0.813-2.068-0.817h-7.809c-0.050-0.644-0.473-1.178-1.052-1.389l-0.011-0.004c-0.154-0.056-0.331-0.088-0.516-0.088-0.001 0-0.003 0-0.004 0h-0.881v-2.363c0.001-0.881 0.715-1.595 1.595-1.596h1.538c0.259 0 0.469-0.21 0.469-0.469s-0.21-0.469-0.469-0.469v0h-1.539c-1.398 0.002-2.532 1.135-2.533 2.533v2.363h-0.635c-0.875 0.001-1.584 0.71-1.586 1.586v4.894c0.002 1.823 1.48 3.301 3.303 3.303h0.236l-0.514 1.382c-0.323 0.871 0.343 1.827 1.27 1.827h0.754c0.422 0 0.826-0.201 1.081-0.537l2.021-2.672h15.699l2.021 2.671c0.254 0.337 0.658 0.538 1.081 0.538h0.754c0.929 0 1.594-0.957 1.27-1.827l-0.514-1.382h0.236c1.823-0.002 3.301-1.48 3.303-3.303v-4.894c-0.001-0.875-0.71-1.584-1.586-1.586h-0zM16.469 9.589c0.001-0.881 0.715-1.595 1.596-1.596h9.181c0.881 0.001 1.594 0.715 1.595 1.596v2.363h-0.882c-0.623 0-1.221 0.4-1.463 0.974-0.068 0.161-0.109 0.333-0.12 0.507h-7.807c-0.815 0.005-1.553 0.325-2.101 0.845l0.001-0.001v-4.688zM5.629 14.37h7.804c1.159 0.001 2.098 0.94 2.099 2.099v0.666h-9.904v-2.766zM5.383 23.841c-0.077 0.101-0.198 0.165-0.333 0.166h-0.754c-0.23-0.003-0.416-0.19-0.416-0.421 0-0.051 0.009-0.1 0.026-0.145l-0.001 0.003 0.635-1.709h2.437l-1.593 2.106zM27.706 24.006h-0.754c-0.136-0-0.256-0.065-0.332-0.165l-0.001-0.001-1.593-2.106h2.437l0.635 1.709c0.015 0.042 0.024 0.091 0.024 0.141 0 0.231-0.185 0.418-0.415 0.422h-0zM28.698 20.797h-25.395c-1.306-0.001-2.364-1.059-2.366-2.365v-4.894c0-0.358 0.291-0.649 0.649-0.649h2.456c0.358 0 0.649 0.291 0.649 0.649v4.067c0 0.259 0.21 0.469 0.469 0.469h17.217c0.259 0 0.469-0.21 0.469-0.469s-0.21-0.469-0.469-0.469v0h-5.907v-0.667c0.001-1.159 0.94-2.098 2.099-2.099h7.805v2.766h-2.121c-0.259 0-0.469 0.21-0.469 0.469s0.21 0.469 0.469 0.469v0h2.59c0.259 0 0.469-0.21 0.469-0.469v0-4.067c0-0.358 0.291-0.649 0.649-0.649h2.455c0.358 0 0.649 0.291 0.649 0.649v4.894c-0.001 1.306-1.059 2.364-2.365 2.366h-0z"></path>
</symbol>
<symbol id="tools" viewBox="0 0 32 32">
<path d="M21.709 9.697c-0.345 0-0.625 0.28-0.625 0.625s0.28 0.625 0.625 0.625v0c0.345 0 0.625-0.28 0.625-0.625s-0.28-0.625-0.625-0.625v0zM10.353 21.053c-0.345 0-0.625 0.28-0.625 0.625s0.28 0.625 0.625 0.625v0c0.345 0 0.625-0.28 0.625-0.625s-0.28-0.625-0.625-0.625v0z"></path>
<path d="M31.254 3.845c-0.043-0.010-0.091-0.016-0.142-0.016-0.173 0-0.33 0.071-0.444 0.185l-0 0-2.591 2.611h-1.242l-1.367-1.417v-1.259l2.554-2.592c0.111-0.113 0.18-0.268 0.18-0.439 0-0.274-0.176-0.506-0.421-0.591l-0.004-0.001c-0.593-0.206-1.277-0.326-1.989-0.326-0.003 0-0.005 0-0.008 0h0c-2.035 0-3.885 0.949-5.074 2.605-1.113 1.549-1.455 3.448-0.964 5.265l-4.604 4.604-7.67-7.687v-1.509c0-0.219-0.115-0.423-0.303-0.536l-4.419-2.652c-0.092-0.056-0.203-0.089-0.321-0.089-0.173 0-0.329 0.070-0.442 0.183v0l-1.768 1.767c-0.113 0.113-0.183 0.27-0.183 0.442 0 0.119 0.033 0.23 0.091 0.324l-0.002-0.003 2.651 4.419c0.113 0.189 0.317 0.303 0.536 0.303l1.509 0.001 7.67 7.687-4.586 4.586c-1.817-0.491-3.717-0.147-5.267 0.966-1.654 1.189-2.602 3.038-2.602 5.074 0 0.682 0.11 1.354 0.326 1.995 0.086 0.25 0.318 0.426 0.592 0.426 0.174 0 0.331-0.071 0.444-0.185l0-0 2.591-2.611h1.249l1.423 1.423v1.25l-2.611 2.591c-0.114 0.113-0.185 0.27-0.185 0.444 0 0.274 0.176 0.506 0.421 0.591l0.004 0.001c0.642 0.216 1.313 0.326 1.996 0.326 2.035 0 3.884-0.949 5.073-2.603 1.114-1.55 1.457-3.45 0.966-5.267l3.683-3.683 0.844 0.916-0.387 0.387c-0.109 0.112-0.177 0.266-0.177 0.436 0 0.345 0.28 0.625 0.625 0.625 0.17 0 0.323-0.067 0.436-0.177l0.351-0.351 7.934 8.618c0.679 0.679 1.616 1.099 2.652 1.099s1.973-0.42 2.652-1.099l0-0c0.677-0.679 1.096-1.617 1.096-2.652s-0.419-1.972-1.096-2.652l0 0-0.020-0.019-8.613-7.901 0.347-0.347c0.113-0.113 0.183-0.269 0.183-0.442 0-0.345-0.28-0.625-0.625-0.625-0.173 0-0.329 0.070-0.442 0.183v0l-0.385 0.385-0.918-0.843 3.701-3.701c0.526 0.141 1.069 0.211 1.619 0.211 3.446 0 6.25-2.803 6.25-6.249 0-0.683-0.11-1.354-0.326-1.996-0.069-0.206-0.24-0.36-0.451-0.409zM5.518 6.371c-0.112-0.11-0.265-0.177-0.434-0.177-0.003 0-0.006 0-0.009 0h-1.412l-2.219-3.705 1.077-1.078 3.697 2.219v1.414c0 0.166 0.066 0.324 0.183 0.441l7.854 7.871-0.884 0.884-7.853-7.87zM21.415 18.562l8.642 7.928c0.452 0.452 0.732 1.077 0.732 1.768 0 1.381-1.119 2.5-2.5 2.5-0.691 0-1.316-0.28-1.768-0.733v0l-7.941-8.627 2.837-2.837zM20.494 17.717l-2.762 2.762-0.844-0.917 2.688-2.688 0.918 0.843zM25.781 11.25c-0.002 0-0.003 0-0.005 0-0.57 0-1.117-0.095-1.627-0.271l0.035 0.011c-0.059-0.021-0.128-0.033-0.199-0.033-0.173 0-0.329 0.070-0.442 0.183v0l-12.37 12.371c-0.113 0.113-0.183 0.269-0.183 0.442 0 0.071 0.012 0.14 0.034 0.204l-0.001-0.004c0.52 1.543 0.271 3.189-0.682 4.515-0.907 1.266-2.374 2.082-4.031 2.082-0.009 0-0.019-0-0.028-0h0.001c-0.183 0-0.365-0.010-0.545-0.029l1.985-1.97c0.118-0.117 0.185-0.277 0.185-0.443v-1.768c0-0.166-0.066-0.325-0.183-0.442l-1.789-1.789c-0.113-0.113-0.269-0.183-0.442-0.183-0 0-0 0-0 0h-1.769c-0.166 0-0.326 0.066-0.443 0.185l-1.97 1.985c-0.019-0.163-0.029-0.351-0.029-0.542 0-0.001 0-0.002 0-0.003v0c-0-0.008-0-0.018-0-0.027 0-1.657 0.815-3.123 2.067-4.020l0.015-0.010c1.327-0.953 2.973-1.202 4.515-0.682 0.225 0.076 0.474 0.018 0.642-0.15l12.371-12.371c0.168-0.168 0.226-0.416 0.15-0.641-0.52-1.543-0.272-3.188 0.681-4.514 0.907-1.267 2.374-2.083 4.032-2.083 0.009 0 0.019 0 0.028 0h-0.001c0.189 0 0.376 0.010 0.562 0.031l-1.944 1.973c-0.115 0.117-0.179 0.274-0.179 0.439v1.768c0 0.162 0.063 0.318 0.175 0.434l1.727 1.789c0.118 0.123 0.28 0.191 0.45 0.191h1.768c0.167 0 0.326-0.066 0.444-0.185l1.969-1.985c0.019 0.18 0.029 0.362 0.029 0.545 0 2.757-2.243 5-5 5z"></path>
<path d="M19.499 11.647l-7.821 7.822c-0.109 0.112-0.177 0.266-0.177 0.436 0 0.345 0.28 0.625 0.625 0.625 0.17 0 0.323-0.067 0.436-0.177l7.821-7.821c0.113-0.113 0.183-0.269 0.183-0.442 0-0.345-0.28-0.625-0.625-0.625-0.173 0-0.329 0.070-0.442 0.183v0zM27.397 28.25c0.113 0.113 0.269 0.182 0.441 0.182 0.345 0 0.625-0.28 0.625-0.625 0-0.173-0.070-0.33-0.184-0.443l-5.634-5.615c-0.112-0.109-0.266-0.176-0.435-0.176-0.345 0-0.625 0.28-0.625 0.625 0 0.17 0.068 0.324 0.178 0.437l-0-0 5.634 5.615z"></path>
</symbol>
<symbol id="invoice" viewBox="0 0 32 32">
<path d="M30.679 0h-29.358c-0.451 0-0.819 0.369-0.819 0.819s0.369 0.819 0.819 0.819h1.768v29.521c0 0.301 0.164 0.581 0.43 0.724s0.587 0.13 0.84-0.041l3.557-2.369 3.57 2.376c0.127 0.087 0.285 0.138 0.454 0.138s0.327-0.052 0.457-0.14l-0.003 0.002 3.557-2.369 3.571 2.376c0.127 0.086 0.285 0.138 0.454 0.138s0.326-0.052 0.457-0.14l-0.003 0.002 3.557-2.369 3.571 2.376c0.137 0.089 0.294 0.137 0.45 0.137 0.13 0 0.266-0.034 0.389-0.095 0.266-0.143 0.43-0.423 0.43-0.724l-0.014-29.522h1.864c0.451 0 0.819-0.369 0.819-0.819s-0.369-0.84-0.819-0.84zM27.197 29.631l-2.751-1.83c-0.128-0.087-0.285-0.138-0.454-0.138s-0.327 0.052-0.457 0.14l0.003-0.002-3.557 2.376-3.571-2.376c-0.127-0.086-0.285-0.138-0.454-0.138s-0.326 0.052-0.457 0.14l0.003-0.002-3.557 2.369-3.571-2.369c-0.127-0.087-0.285-0.138-0.454-0.138s-0.327 0.052-0.457 0.14l0.003-0.002-2.738 1.823v-27.992h22.462l0.007 27.999z"></path>
<path d="M8.497 13.081h8.582c0.45 0 0.819-0.369 0.819-0.819s-0.369-0.819-0.819-0.819h-8.582c-0.45 0-0.819 0.369-0.819 0.819 0 0.001 0 0.001 0 0.002 0 0.451 0.366 0.817 0.817 0.817 0.001 0 0.002 0 0.002 0h-0zM8.497 15.929h6.431c0.451 0 0.819-0.369 0.819-0.819s-0.369-0.819-0.819-0.819h-6.431c-0.45 0-0.819 0.369-0.819 0.819 0 0.001 0 0.001 0 0.002 0 0.451 0.366 0.817 0.817 0.817 0.001 0 0.002 0 0.002 0h-0zM21.366 13.081h2.144c0.45 0 0.819-0.369 0.819-0.819s-0.369-0.819-0.819-0.819h-2.145c-0.45 0-0.819 0.369-0.819 0.819 0 0.001 0 0.001 0 0.002 0 0.451 0.366 0.817 0.817 0.817 0.001 0 0.002 0 0.002 0h-0zM21.366 15.929h2.144c0.45 0 0.819-0.369 0.819-0.819s-0.369-0.819-0.819-0.819h-2.145c-0.45 0-0.819 0.369-0.819 0.819 0 0.001 0 0.001 0 0.002 0 0.451 0.366 0.817 0.817 0.817 0.001 0 0.002 0 0.002 0h-0zM8.497 6.506h8.582c0.45 0 0.819-0.369 0.819-0.819s-0.369-0.819-0.819-0.819h-8.582c-0.45 0-0.819 0.369-0.819 0.819 0 0.001 0 0.001 0 0.002 0 0.451 0.366 0.817 0.817 0.817 0.001 0 0.002 0 0.002 0h-0zM8.497 9.347h6.431c0.451 0 0.819-0.369 0.819-0.819s-0.369-0.819-0.819-0.819h-6.431c-0.45 0-0.819 0.369-0.819 0.819 0 0.001 0 0.001 0 0.002 0 0.451 0.366 0.817 0.817 0.817 0.001 0 0.002 0 0.002 0h-0zM21.366 6.506h2.144c0.45 0 0.819-0.369 0.819-0.819s-0.369-0.819-0.819-0.819h-2.145c-0.45 0-0.819 0.369-0.819 0.819 0 0.001 0 0.001 0 0.002 0 0.451 0.366 0.817 0.817 0.817 0.001 0 0.002 0 0.002 0h-0zM21.366 9.347h2.144c0.45 0 0.819-0.369 0.819-0.819s-0.369-0.819-0.819-0.819h-2.145c-0.45 0-0.819 0.369-0.819 0.819 0 0.001 0 0.001 0 0.002 0 0.451 0.366 0.817 0.817 0.817 0.001 0 0.002 0 0.002 0h-0zM8.497 19.738h8.582c0.45 0 0.819-0.369 0.819-0.819s-0.369-0.819-0.819-0.819h-8.582c-0.45 0-0.819 0.369-0.819 0.819 0 0 0 0.001 0 0.002 0 0.451 0.366 0.817 0.817 0.817 0.001 0 0.002 0 0.002 0h-0zM8.497 22.578h6.431c0.451 0 0.819-0.369 0.819-0.819s-0.369-0.819-0.819-0.819h-6.431c-0.45 0-0.819 0.369-0.819 0.819 0 0.001 0 0.001 0 0.002 0 0.451 0.366 0.817 0.817 0.817 0.001 0 0.002 0 0.002 0h-0zM21.366 19.738h2.144c0.45 0 0.819-0.369 0.819-0.819s-0.369-0.819-0.819-0.819h-2.145c-0.45 0-0.819 0.369-0.819 0.819 0 0 0 0.001 0 0.002 0 0.451 0.366 0.817 0.817 0.817 0.001 0 0.002 0 0.002 0h-0zM21.366 22.578h2.144c0.45 0 0.819-0.369 0.819-0.819s-0.369-0.819-0.819-0.819h-2.145c-0.45 0-0.819 0.369-0.819 0.819 0 0.001 0 0.001 0 0.002 0 0.451 0.366 0.817 0.817 0.817 0.001 0 0.002 0 0.002 0h-0z"></path>
</symbol>
<symbol id="clay" viewBox="0 0 32 32">
<path d="M31.020 13.515h-1.907c-0.353 0-0.665 0.182-0.847 0.456-1.458-0.152-1.653-0.386-1.81-0.577-0.213-0.257-0.463-0.473-0.743-0.646l-0.013-0.007-4.383-2.662c-0.892-2.073-2.385-3.37-3.493-4.096-0.417-0.277-0.689-0.745-0.689-1.276 0-0.002 0-0.004 0-0.006v0c0-0.306 0.090-0.603 0.261-0.857l1.090-1.622c0.217-0.323 0.292-0.71 0.211-1.091-0.142-0.65-0.712-1.13-1.395-1.13h-5.178c-0 0-0.001 0-0.001 0-0.787 0-1.426 0.638-1.426 1.426 0 0.297 0.091 0.573 0.246 0.801l-0.003-0.005 1.090 1.622c0.171 0.254 0.261 0.551 0.261 0.857 0 0.52-0.257 0.999-0.689 1.282-1.642 1.077-5.31 4.25-3.923 10.451 0.774 3.459 1.371 5.897 1.731 7.071h-7.73c-0.638 0-1.195 0.453-1.325 1.077l-0.263 1.268c-0.083 0.401 0.017 0.813 0.274 1.13 0.249 0.306 0.626 0.499 1.048 0.499 0.001 0 0.002 0 0.003 0h26.594c0.001 0 0.002 0 0.003 0 0.422 0 0.798-0.194 1.046-0.497l0.002-0.002c0.189-0.23 0.304-0.528 0.304-0.853 0-0.098-0.011-0.194-0.030-0.287l0.002 0.009-0.264-1.269c-0.135-0.618-0.676-1.074-1.325-1.077h-7.729c0.107-0.351 0.237-0.818 0.387-1.396h0.509c0.001 0 0.001 0 0.002 0 1.569 0 3.082-0.242 4.503-0.692l-0.106 0.029 2.913-0.367c0.177 0.314 0.508 0.522 0.887 0.522h1.907c0.561-0 1.016-0.455 1.017-1.017v-6.054c0-0.56-0.456-1.017-1.017-1.017zM11.646 1.326c0.048-0.223 0.244-0.387 0.478-0.387 0 0 0.001 0 0.001 0h5.178c0 0 0.001 0 0.001 0 0.234 0 0.429 0.165 0.476 0.384l0.001 0.003c0.007 0.031 0.011 0.066 0.011 0.102 0 0.102-0.031 0.196-0.084 0.274l0.001-0.002-0.539 0.803h-4.912l-0.539-0.803c-0.052-0.076-0.083-0.17-0.083-0.271 0-0.036 0.004-0.072 0.012-0.106l-0.001 0.003zM12.117 6.768c0.674-0.446 1.113-1.202 1.113-2.059 0-0.003 0-0.005 0-0.008v0c0-0.447-0.12-0.88-0.347-1.262h3.663c-0.218 0.36-0.347 0.796-0.347 1.261 0 0 0 0 0 0.001v-0c0 0.837 0.416 1.609 1.113 2.066 0.287 0.189 0.603 0.419 0.926 0.695h-7.042c0.274-0.237 0.575-0.465 0.89-0.675l0.033-0.021zM28.154 24.775l0.264 1.268c0.006 0.026 0.009 0.056 0.009 0.087 0 0.099-0.035 0.191-0.094 0.262l0.001-0.001c-0.076 0.094-0.191 0.153-0.319 0.153-0.001 0-0.002 0-0.004 0h-26.594c-0.001 0-0.001 0-0.002 0-0.129 0-0.244-0.060-0.32-0.153l-0.001-0.001c-0.058-0.070-0.094-0.161-0.094-0.261 0-0.030 0.003-0.060 0.010-0.089l-0 0.003 0.264-1.269c0.040-0.191 0.211-0.33 0.407-0.33h26.066c0.196 0 0.367 0.139 0.407 0.331zM19.034 23.506h-8.64c-0.193-0.575-0.683-2.285-1.8-7.275-0.471-2.104-0.358-4.009 0.333-5.676h1.726c0.259 0 0.469-0.21 0.469-0.469s-0.21-0.469-0.469-0.469v0h-1.262c0.265-0.457 0.559-0.861 0.865-1.217h8.919c0.306 0.357 0.6 0.761 0.863 1.216h-7.507c-0.259 0-0.469 0.21-0.469 0.469s0.21 0.469 0.469 0.469v0h6.211c-0.070 0.167-0.111 0.361-0.111 0.565 0 0.128 0.016 0.252 0.046 0.371l-0.002-0.010c0.096 0.39 0.338 0.719 0.681 0.927l0.806 0.49h-5.21c-0.827 0-1.498 0.636-1.527 1.449-0.008 0.217 0.030 0.427 0.109 0.621h-0.481c-0.001 0-0.003 0-0.005 0-0.423 0-0.805 0.176-1.076 0.459l-0.001 0.001c-0.261 0.269-0.422 0.637-0.422 1.043 0 0.663 0.431 1.226 1.028 1.423l0.011 0.003c-0.091 0.188-0.144 0.409-0.144 0.642 0 0.83 0.672 1.503 1.502 1.505h0.71c-0.069 0.167-0.11 0.361-0.11 0.564 0 0.83 0.672 1.503 1.502 1.505h3.389c-0.197 0.746-0.324 1.163-0.402 1.396zM25.154 20.523c-0.030 0.004-0.058 0.010-0.084 0.018l0.003-0.001c-1.243 0.402-2.674 0.633-4.159 0.633-0 0-0.001 0-0.001 0h-4.866c-0.305-0.010-0.548-0.26-0.548-0.566s0.243-0.556 0.547-0.566l0.001-0h3.073c0.259 0 0.469-0.21 0.469-0.469s-0.21-0.469-0.469-0.469v0h-5.175c-0.299-0.017-0.536-0.264-0.536-0.566s0.236-0.549 0.534-0.566l0.002-0h5.175c0.259 0 0.469-0.21 0.469-0.469s-0.21-0.469-0.469-0.469v0h-6.043c-0.315 0-0.579-0.245-0.59-0.545-0-0.007-0-0.015-0-0.023 0-0.311 0.252-0.564 0.564-0.564 0.001 0 0.002 0 0.002 0h6.068c0.259 0 0.469-0.21 0.469-0.469s-0.21-0.469-0.469-0.469v0h-4.193c-0.001 0-0.001 0-0.002 0-0.159 0-0.303-0.066-0.405-0.173l-0-0c-0.098-0.101-0.159-0.24-0.159-0.392 0-0.008 0-0.016 0-0.023l-0 0.001c0.011-0.3 0.275-0.545 0.59-0.545h6.461c0.266 0 0.494-0.173 0.566-0.429 0.014-0.048 0.023-0.104 0.023-0.161 0-0.211-0.112-0.396-0.281-0.498l-0.003-0.001-1.876-1.139c-0.127-0.077-0.219-0.2-0.255-0.345l-0.001-0.004c-0.010-0.040-0.016-0.086-0.016-0.133 0-0.313 0.254-0.567 0.567-0.567 0.108 0 0.208 0.030 0.294 0.082l-0.003-0.001 4.786 2.907c0.197 0.12 0.372 0.271 0.52 0.45 0.383 0.463 0.875 0.741 2.362 0.903v5.255l-2.942 0.371zM31.099 20.586c0 0.044-0.035 0.079-0.079 0.079v0h-1.907c-0.043-0-0.079-0.035-0.079-0.079v-6.055c0-0.043 0.035-0.079 0.079-0.079h1.907c0.043 0 0.079 0.035 0.079 0.079v6.054zM22.477 30.488l-2.441-1.965c-0.080-0.065-0.182-0.104-0.294-0.104-0.259 0-0.469 0.21-0.469 0.469 0 0.147 0.068 0.279 0.174 0.365l0.001 0.001 2.249 1.808h-13.965l2.253-1.811c0.107-0.087 0.175-0.218 0.175-0.365 0-0.259-0.21-0.469-0.469-0.469-0.112 0-0.214 0.039-0.295 0.104l0.001-0.001-2.446 1.967c-0.195 0.155-0.32 0.393-0.32 0.66 0 0.102 0.018 0.2 0.052 0.291l-0.002-0.006c0.122 0.345 0.437 0.567 0.802 0.567h14.461c0.366 0 0.68-0.223 0.802-0.567 0.032-0.085 0.050-0.183 0.050-0.286 0-0.266-0.124-0.503-0.317-0.657l-0.002-0.001z"></path>
</symbol>
<symbol id="book" viewBox="0 0 32 32">
<path d="M31.379 6.431h-2.109v-0.72c0-0.007 0-0.016 0-0.024 0-0.281-0.187-0.518-0.443-0.595l-0.004-0.001c-1.329-0.363-2.855-0.571-4.43-0.571-0.015 0-0.030 0-0.044 0h0.002c-2.481 0-5.862 0.558-8.361 3.102-2.481-2.568-5.887-3.102-8.362-3.102-0.013-0-0.027-0-0.042-0-1.575 0-3.101 0.208-4.552 0.599l0.122-0.028c-0.274 0.080-0.458 0.335-0.446 0.62v0.714h-2.090c-0.342 0.001-0.62 0.278-0.62 0.621v19.812c0.001 0.342 0.278 0.619 0.621 0.619 0.111 0 0.216-0.029 0.306-0.081l-0.003 0.002c0.062-0.031 6.265-3.424 14.924-1.241h0.149c0.049 0.006 0.099 0.006 0.149 0 8.684-2.202 14.887 1.185 14.924 1.24 0.089 0.052 0.196 0.083 0.31 0.083 0.341 0 0.618-0.276 0.621-0.616v-19.812c0-0.343-0.278-0.62-0.621-0.62zM1.241 25.87v-18.199h1.482v15.557c-0 0.002-0 0.005-0 0.007 0 0.343 0.278 0.621 0.621 0.621 0.033 0 0.065-0.003 0.097-0.008l-0.003 0c1.157-0.186 2.499-0.299 3.865-0.31l0.012-0c1.798-0.031 3.589 0.239 5.297 0.8-0.822-0.105-1.774-0.165-2.739-0.165-3.112 0-6.079 0.623-8.782 1.752l0.151-0.056zM7.313 22.304c-1.192 0.003-2.363 0.082-3.512 0.232l0.138-0.015v-16.32c1.104-0.257 2.373-0.406 3.676-0.409h0.002c2.32 0 5.52 0.534 7.741 3.040l0.019 15.451c-1.29-0.844-3.809-1.979-8.063-1.979zM16.617 8.831c2.221-2.481 5.421-3.039 7.741-3.039 1.237 0.004 2.47 0.141 3.678 0.41v16.319c-1.003-0.136-2.167-0.217-3.349-0.223l-0.007-0c-4.23 0-6.754 1.135-8.063 1.978v-15.445zM30.753 25.871c-2.555-1.075-5.524-1.7-8.639-1.7-0.971 0-1.928 0.061-2.867 0.178l0.112-0.011c1.5-0.509 3.228-0.803 5.025-0.803 0.104 0 0.209 0.001 0.313 0.003l-0.016-0c1.306 0.007 2.61 0.109 3.902 0.304 0.028 0.004 0.060 0.007 0.093 0.007 0.343 0 0.621-0.278 0.621-0.621 0-0.002 0-0.004-0-0.007v0-15.551h1.483l-0.025 18.199z"></path>
</symbol>
<symbol id="ufo" viewBox="0 0 32 32">
<path d="M31.996 22.334c-0.956-7.667-8.11-8.803-10.129-8.971v-6.963c0-0.048-0.067-4.8-5.867-4.8s-5.867 4.752-5.867 4.8v6.963c-2.019 0.167-9.17 1.303-10.129 8.97 0 0.011-0.004 0.053-0.004 0.066v2.133c0 0.295 0.239 0.534 0.533 0.534h2.667v1.066h-1.6c-0.294 0-0.533 0.239-0.533 0.533 0 0 0 0 0 0.001v-0c0 1.291 0.78 3.733 3.733 3.733s3.733-2.442 3.733-3.734c0-0.294-0.239-0.533-0.533-0.533v0h-1.6v-1.066h8v1.066h-1.6c-0.294 0-0.533 0.239-0.533 0.533 0 0 0 0 0 0.001v-0c0 1.291 0.78 3.733 3.733 3.733s3.733-2.442 3.733-3.734c0-0.294-0.239-0.533-0.533-0.533v0h-1.6v-1.066h8v1.066h-1.6c-0.294 0-0.533 0.239-0.533 0.533 0 0 0 0 0 0.001v-0c0 1.291 0.78 3.733 3.733 3.733s3.733-2.442 3.733-3.734c0-0.294-0.239-0.533-0.533-0.533v0h-1.6v-1.066h2.667c0.294 0 0.533-0.239 0.533-0.533 0-0 0-0 0-0.001v0-2.133c0-0.013 0-0.054-0.004-0.066zM11.2 6.4c0-0.153 0.053-3.734 4.8-3.734 4.714 0 4.8 3.583 4.8 3.734v6.933h-1.067v-3.2h-1.066v3.2h-7.467v-6.933zM6.187 15.434c1.315-0.593 2.846-0.967 4.455-1.033l0.025-0.001h10.666c1.634 0.067 3.165 0.441 4.558 1.066l-0.078-0.031c2.656 1.12 4.581 3.508 5.027 6.385l0.006 0.047h-29.692c0.452-2.924 2.377-5.312 4.979-6.412l0.054-0.020zM4.8 29.333c-0.055 0.004-0.119 0.007-0.184 0.007-1.243 0-2.27-0.927-2.426-2.128l-0.001-0.012h5.219c-0.164 1.213-1.193 2.139-2.438 2.139-0.060 0-0.119-0.002-0.177-0.006l0.008 0zM5.333 26.133h-1.066v-1.066h1.066v1.066zM16 29.333c-0.055 0.004-0.119 0.007-0.184 0.007-1.243 0-2.27-0.927-2.426-2.128l-0.001-0.012h5.219c-0.164 1.213-1.193 2.139-2.438 2.139-0.060 0-0.119-0.002-0.177-0.006l0.008 0zM16.533 26.133h-1.066v-1.066h1.066v1.066zM27.2 29.333c-0.056 0.005-0.121 0.007-0.187 0.007-1.243 0-2.27-0.927-2.425-2.128l-0.001-0.012h5.221c-0.164 1.213-1.193 2.139-2.438 2.139-0.060 0-0.119-0.002-0.177-0.006l0.008 0zM27.733 26.133h-1.066v-1.066h1.066v1.066zM30.933 24h-29.866v-1.067h29.866v1.067z"></path>
<path d="M16 15.467c-1.473 0-2.667 1.194-2.667 2.667s1.194 2.667 2.667 2.667v0c1.473 0 2.667-1.194 2.667-2.667s-1.194-2.667-2.667-2.667v0zM16 19.734c-0.884 0-1.6-0.716-1.6-1.6s0.716-1.6 1.6-1.6v0c0.884 0 1.6 0.716 1.6 1.6s-0.716 1.6-1.6 1.6v0z"></path>
<path d="M17.067 18.133c0 0.589-0.478 1.067-1.067 1.067s-1.067-0.478-1.067-1.067v0c0-0.589 0.478-1.067 1.067-1.067s1.067 0.478 1.067 1.067v0zM18.667 8h1.066v1.067h-1.066v-1.067zM18.667 6.4v0.533h1.066v-0.533c0-0.273-0.107-2.667-3.733-2.667v1.067c2.474 0 2.667 1.226 2.667 1.6zM11.2 17.6h1.067v1.066h-1.067v-1.066zM9.067 17.6h1.066v1.066h-1.066v-1.066zM19.733 17.6h1.067v1.066h-1.067v-1.066zM21.867 17.6h1.066v1.066h-1.066v-1.066z"></path>
</symbol>
<symbol id="delete" viewBox="0 0 32 32">
<path d="M28.992 7.152l-0.706-2.117c-0.268-0.791-1.004-1.349-1.869-1.349-0.001 0-0.002 0-0.003 0h-5.938v-1.932c-0.001-0.968-0.785-1.752-1.753-1.753h-5.437c-0.968 0.001-1.752 0.785-1.753 1.753v1.933h-5.938c-0.85 0-1.602 0.542-1.872 1.349l-0.706 2.117c-0.051 0.149-0.080 0.32-0.080 0.498 0 0.876 0.708 1.586 1.584 1.589h0.738l1.627 20.101c0.121 1.492 1.387 2.66 2.88 2.66h12.805c1.493 0 2.761-1.168 2.88-2.66l1.627-20.101h0.409c0.875-0.003 1.584-0.713 1.584-1.589 0-0.178-0.029-0.349-0.083-0.509l0.003 0.011zM13.41 1.876h5.191v1.81h-5.191v-1.81zM23.586 29.189c-0.046 0.524-0.482 0.932-1.013 0.935h-12.804c-0.532-0.003-0.967-0.411-1.013-0.931l-0-0.004-1.614-19.95h18.057l-1.612 19.95zM4.924 7.365l0.58-1.737c0.013-0.039 0.049-0.067 0.092-0.068h20.818c0.043 0 0.080 0.027 0.092 0.068l0.58 1.737h-22.162z"></path>
<path d="M20.596 29.122l0.048 0.002c0 0 0.001 0 0.001 0 0.501 0 0.909-0.393 0.936-0.887l0-0.002 0.88-16.9c0.001-0.015 0.001-0.032 0.001-0.049 0-0.518-0.42-0.937-0.937-0.937-0.5 0-0.909 0.392-0.936 0.886l-0 0.002-0.882 16.9c-0.001 0.015-0.001 0.032-0.001 0.049 0 0.501 0.393 0.91 0.888 0.936l0.002 0zM10.473 28.236c0.028 0.495 0.436 0.887 0.936 0.887 0.518 0 0.937-0.42 0.937-0.937 0-0.018-0.001-0.036-0.001-0.053l0 0.002-0.923-16.9c-0.028-0.495-0.436-0.887-0.936-0.887-0.518 0-0.937 0.42-0.937 0.937 0 0.018 0.001 0.036 0.001 0.053l-0-0.002 0.923 16.9zM16.016 29.124c0.517 0 0.937-0.419 0.937-0.937v0-16.901c0-0.517-0.419-0.937-0.937-0.937s-0.937 0.419-0.937 0.937v0 16.901c0 0.516 0.42 0.937 0.937 0.937z"></path>
</symbol>
<symbol id="diagram" viewBox="0 0 32 32">
<path d="M0 9.6h6.857v22.4h-6.857v-22.4zM12.8 0h6.4v32h-6.4v-32zM25.6 18.286h6.4v13.714h-6.4v-13.714z"></path>
</symbol>
<symbol id="calculator" viewBox="0 0 32 32">
<path d="M27.25 0h-22.498c-1.554 0-2.814 1.259-2.816 2.813v26.375c0 1.552 1.261 2.813 2.813 2.813h22.499c1.553-0.002 2.811-1.26 2.813-2.813v-26.375c-0.002-1.552-1.259-2.81-2.811-2.813h-0zM28.187 29.187c-0.001 0.517-0.42 0.937-0.938 0.938h-22.498c-0.517-0.001-0.937-0.42-0.938-0.938v-26.375c0-0.517 0.421-0.938 0.938-0.938h22.496c0.517 0 0.938 0.421 0.938 0.938v26.374z"></path>
<path d="M25.376 3.75h-18.752c-0.517 0.001-0.936 0.42-0.936 0.938 0 0 0 0 0 0v0 7.624c0 0.518 0.419 0.938 0.938 0.938h18.749c0.518 0 0.938-0.42 0.938-0.938v0-7.624c0-0.518-0.42-0.938-0.938-0.938v0zM24.437 11.374h-16.874v-5.749h16.874v5.749zM10.374 15.125h-3.749c-0.518 0-0.938 0.42-0.938 0.938v3.75c0 0.517 0.419 0.938 0.938 0.938h3.749c0.518 0 0.938-0.42 0.938-0.938v0-3.75c0-0.518-0.42-0.938-0.938-0.938v0zM9.437 18.875h-1.874v-1.875h1.874v1.875zM10.374 22.624h-3.749c0 0 0 0 0 0-0.518 0-0.938 0.42-0.938 0.938 0 0.001 0 0.001 0 0.002v-0 3.749c0 0.518 0.419 0.938 0.938 0.938h3.749c0.518 0 0.938-0.42 0.938-0.938v0-3.749c0-0.518-0.42-0.938-0.938-0.938v0zM9.437 26.374h-1.874v-1.875h1.874v1.875zM17.875 15.125h-3.75c-0.518 0-0.938 0.42-0.938 0.938v3.75c0 0.517 0.421 0.938 0.938 0.938h3.75c0.518 0 0.938-0.42 0.938-0.938v0-3.75c0-0.518-0.42-0.938-0.938-0.938v0zM16.938 18.875h-1.875v-1.875h1.875v1.875zM17.875 22.624h-3.75c0 0 0 0 0 0-0.518 0-0.938 0.42-0.938 0.938 0 0.001 0 0.001 0 0.002v-0 3.749c0 0.518 0.421 0.938 0.938 0.938h3.75c0.518 0 0.938-0.42 0.938-0.938v0-3.749c0-0.518-0.42-0.938-0.938-0.938v0zM16.938 26.374h-1.875v-1.875h1.875v1.875zM25.376 15.125h-3.75c-0.518 0-0.938 0.42-0.938 0.938v0 11.25c0 0.518 0.419 0.938 0.938 0.938h3.749c0.518 0 0.938-0.42 0.938-0.938v0-11.248c0-0 0-0.001 0-0.002 0-0.518-0.42-0.938-0.938-0.938 0 0 0 0 0 0v0zM24.437 26.374h-1.874v-9.374h1.874v9.376z"></path>
</symbol>
<symbol id="calendar" viewBox="0 0 32 32">
<path d="M27.96 3.307h-2.099v-0.514c0-0.012 0.001-0.025 0.001-0.039 0-0.518-0.42-0.938-0.938-0.938s-0.938 0.42-0.938 0.938c0 0.014 0 0.027 0.001 0.041l-0-0.002v0.512h-2.587v-0.512c0-0.518-0.42-0.938-0.938-0.938s-0.938 0.42-0.938 0.938v0 0.512h-2.587v-0.512c0-0.518-0.42-0.938-0.938-0.938s-0.938 0.42-0.938 0.938v0.512h-2.587v-0.512c0-0.518-0.42-0.938-0.938-0.938s-0.938 0.42-0.938 0.938v0 0.512h-2.587v-0.512c-0.021-0.501-0.433-0.899-0.937-0.899s-0.915 0.398-0.937 0.897l-0 0.002v0.512h-2.099c-2.231 0.002-4.039 1.81-4.040 4.042v18.759c0.002 2.23 1.81 4.038 4.040 4.040h23.92c2.23-0.002 4.038-1.809 4.040-4.040v-18.762c-0.003-2.23-1.81-4.037-4.040-4.038h-0zM30.125 26.104c0 1.194-0.971 2.165-2.165 2.165h-23.92c-1.195-0.001-2.163-0.969-2.165-2.163v-15.335h28.25v15.334zM30.125 8.896h-28.25v-1.55c0-1.192 0.971-2.163 2.165-2.163h2.099v0.362c0.021 0.501 0.433 0.899 0.937 0.899s0.915-0.398 0.937-0.897l0-0.002v-0.36h2.587v0.362c0 0.518 0.42 0.938 0.938 0.938s0.938-0.42 0.938-0.938v0-0.362h2.587v0.362c0 0.518 0.42 0.938 0.938 0.938s0.938-0.42 0.938-0.938v0-0.362h2.587v0.362c0 0.518 0.42 0.938 0.938 0.938s0.938-0.42 0.938-0.938v0-0.362h2.587v0.362c-0 0.012-0.001 0.025-0.001 0.039 0 0.518 0.42 0.938 0.938 0.938s0.938-0.42 0.938-0.938c0-0.014-0-0.027-0.001-0.041l0 0.002v-0.362h2.099c1.194 0 2.165 0.971 2.165 2.163v1.552z"></path>
<path d="M10.451 12.771h-3.699c-0.518 0-0.938 0.42-0.938 0.938v0 3.827c0 0.517 0.419 0.938 0.938 0.938h3.699c0.518 0 0.938-0.42 0.938-0.938v-3.829c-0.001-0.517-0.42-0.936-0.938-0.936 0 0 0 0 0 0v0zM9.514 16.598h-1.824v-1.952h1.824v1.952zM17.85 12.771h-3.699c-0.518 0-0.938 0.42-0.938 0.938v0 3.827c0 0.517 0.419 0.938 0.938 0.938h3.699c0.518 0 0.938-0.42 0.938-0.938v-3.829c-0.001-0.517-0.42-0.936-0.938-0.936 0 0 0 0 0 0v0zM16.912 16.598h-1.824v-1.952h1.824v1.952zM25.248 12.771h-3.699c-0.518 0-0.938 0.42-0.938 0.938v0 3.827c0 0.517 0.421 0.938 0.938 0.938h3.699c0.518 0 0.938-0.42 0.938-0.938v-3.829c-0.001-0.517-0.42-0.936-0.938-0.936 0 0 0 0 0 0v0zM24.31 16.598h-1.824v-1.952h1.824v1.952zM10.451 20.042h-3.699c-0.518 0-0.938 0.42-0.938 0.938v3.827c0 0.517 0.419 0.938 0.938 0.938h3.699c0.518 0 0.938-0.42 0.938-0.938v-3.827c0-0.518-0.42-0.938-0.938-0.938v0zM9.514 23.869h-1.824v-1.952h1.824v1.952zM17.85 20.042h-3.699c-0.518 0-0.938 0.42-0.938 0.938v0 3.827c0 0.517 0.419 0.938 0.938 0.938h3.699c0.518 0 0.938-0.42 0.938-0.938v-3.827c0-0.518-0.42-0.938-0.938-0.938v0zM16.912 23.869h-1.824v-1.952h1.824v1.952zM25.248 20.042h-3.699c-0.518 0-0.938 0.42-0.938 0.938v3.827c0 0.517 0.421 0.938 0.938 0.938h3.699c0.518 0 0.938-0.42 0.938-0.938v-3.827c0-0.518-0.42-0.938-0.938-0.938v0zM24.31 23.869h-1.824v-1.952h1.824v1.952z"></path>
</symbol>
<symbol id="close" viewBox="0 0 32 32">
<path fill="none" stroke="#52555f" style="stroke: var(--color4, #52555f)" stroke-linejoin="miter" stroke-linecap="butt" stroke-miterlimit="4" stroke-width="4.5714" d="M2.286 2.286l27.429 27.429M2.286 29.714l27.429-27.429"></path>
</symbol>
</defs>
</svg>
